<?xml version="1.0" encoding="UTF-8"?>
<!DOCTYPE svg PUBLIC "-//W3C//DTD SVG 1.1//EN" "http://www.w3.org/Graphics/SVG/1.1/DTD/svg11.dtd">
<!-- Creator: CorelDRAW 2020 (64-Bit) -->
<svg xmlns="http://www.w3.org/2000/svg" xml:space="preserve" width="102.5mm" height="102.5mm" version="1.1" style="shape-rendering:geometricPrecision; text-rendering:geometricPrecision; image-rendering:optimizeQuality; fill-rule:evenodd; clip-rule:evenodd"
viewBox="0 0 1485.86 1485.86"
 xmlns:xlink="http://www.w3.org/1999/xlink"
 xmlns:xodm="http://www.corel.com/coreldraw/odm/2003">
 <defs>
  <style type="text/css">
   <![CDATA[
    .fil1 {fill:white}
    .fil0 {fill:url(#id0)}
   ]]>
  </style>
  <linearGradient id="id0" gradientUnits="userSpaceOnUse" x1="-253.4" y1="-466.77" x2="1659.31" y2="1216.44">
   <stop offset="0" style="stop-opacity:1; stop-color:#1A7EED"/>
   <stop offset="1" style="stop-opacity:1; stop-color:#893AF8"/>
  </linearGradient>
 </defs>
 <g id="Layer_x0020_1">
  <metadata id="CorelCorpID_0Corel-Layer"/>
  <path class="fil0" d="M151.8 1485.86l1182.27 0c83.82,0 151.79,-67.94 151.79,-151.79l0 0 0 -1182.3c0,-83.82 -67.98,-151.77 -151.79,-151.77l0 0 -1182.27 0c-83.85,0 -151.79,67.95 -151.79,151.77l0 1182.3c0,83.85 67.95,151.79 151.79,151.79z"/>
  <g>
   <path class="fil1" d="M1246.08 708.43c5.73,0 10.59,2.29 14.1,5.82 1.87,1.88 3.35,4.12 4.35,6.56 1.01,2.45 1.56,5.08 1.56,7.7 0,4.93 -1.83,9.95 -5.9,14.01l0.02 0.02 -226.43 226.42 -15.93 15.93c-0.16,0.16 -0.33,0.32 -0.5,0.46 -1.75,1.65 -3.78,2.95 -5.98,3.85 -2.43,1 -5.03,1.53 -7.65,1.53l-160.2 0c-2.6,0 -5.21,-0.53 -7.65,-1.54 -2.4,-0.99 -4.61,-2.45 -6.47,-4.33l-0.02 0.02 -81.7 -81.69 -136.43 -136.43c-0.09,-0.09 -0.17,-0.17 -0.25,-0.26 -0.85,-0.73 -1.93,-1.09 -3.03,-1.09 -1.2,0 -2.4,0.45 -3.3,1.34l0.01 0.01 -136.43 136.43 -60.34 60.34 -0.02 0.02c-0.17,0.17 -0.36,0.34 -0.54,0.49 -3.83,3.56 -8.7,5.34 -13.57,5.34 -5.09,0 -10.18,-1.95 -14.08,-5.84 -0.01,-0 -0.01,-0.01 -0.01,-0.02l-0.02 0.02 -0.02 -0.02 -60.35 -60.34 -66.16 -66.17c-0.14,-0.14 -0.27,-0.28 -0.4,-0.43l-27.15 -27.17c-3.9,-3.9 -5.85,-9 -5.85,-14.1 0,-5.09 1.95,-10.2 5.85,-14.1 0.01,-0.01 0.02,-0.02 0.03,-0.03l0 0 42.05 -42.04 -0.02 -0.02 28.47 -28.47 209.68 -209.72c0.19,-0.19 0.39,-0.37 0.6,-0.54 1.76,-1.61 3.76,-2.89 5.91,-3.78 0.17,-0.07 0.33,-0.13 0.5,-0.19 2.28,-0.88 4.69,-1.35 7.12,-1.35l177.95 0c2.6,0 5.18,0.53 7.59,1.54 2.41,1 4.61,2.45 6.47,4.29 0.02,0.02 0.04,0.04 0.06,0.06l0 -0 28 28.02 0.01 -0.02 45.79 45.79c0.14,0.14 0.27,0.28 0.39,0.42l131.97 131.87c0.01,0.01 0.01,0.01 0.01,0.02l0.02 -0.02c0.45,0.45 0.96,0.8 1.48,1.01 0.54,0.22 1.15,0.34 1.81,0.34l324.56 0zm0 7.67c10.96,0 16.48,13.28 8.71,21.01l-226.43 226.42 -15.93 15.93c-2.29,2.33 -5.41,3.6 -8.71,3.6l-160.2 0c-3.26,0 -6.41,-1.28 -8.7,-3.6l-81.7 -81.69 -136.43 -136.43c-4.8,-4.8 -12.6,-4.8 -17.41,0l-136.43 136.43 -60.34 60.34c-4.8,4.81 -12.61,4.81 -17.41,0l-60.35 -60.34 -66.16 -66.17 -27.54 -27.57c-4.8,-4.8 -4.8,-12.6 0,-17.41l42.07 -42.06 28.47 -28.47 209.68 -209.72c2.33,-2.29 5.45,-3.6 8.71,-3.6l177.95 0c3.26,0 6.39,1.31 8.7,3.6l28.01 28.04 45.79 45.79 132.39 132.29c2.29,2.29 5.45,3.6 8.71,3.6l324.56 0z"/>
  </g>
 </g>
</svg>
