<?xml version="1.0" encoding="UTF-8"?>
<!DOCTYPE svg PUBLIC "-//W3C//DTD SVG 1.1//EN" "http://www.w3.org/Graphics/SVG/1.1/DTD/svg11.dtd">
<!-- Creator: CorelDRAW 2020 (64-Bit) -->
<svg xmlns="http://www.w3.org/2000/svg" xml:space="preserve" width="136.111mm" height="72.6723mm" version="1.1" style="shape-rendering:geometricPrecision; text-rendering:geometricPrecision; image-rendering:optimizeQuality; fill-rule:evenodd; clip-rule:evenodd"
viewBox="0 0 6746.65 3602.17"
 xmlns:xlink="http://www.w3.org/1999/xlink"
 xmlns:xodm="http://www.corel.com/coreldraw/odm/2003">
 <defs>
  <style type="text/css">
   <![CDATA[
    .fil0 {fill:none}
    .fil1 {fill:black;fill-rule:nonzero}
   ]]>
  </style>
 </defs>
 <g id="Layer_x0020_1">
  <metadata id="CorelCorpID_0Corel-Layer"/>
  <rect class="fil0" x="0" y="-0" width="6746.65" height="3602.17"/>
  <g id="_1381344153072">
   <path class="fil1" d="M5531.02 1801.08c0,107.63 -23.64,209.83 -65.81,301.66 -23.48,50.61 -52.36,98.2 -86.39,141.63 -70.58,90.71 -162.39,164.15 -268.1,212.86 -91.83,42.16 -193.88,65.8 -301.66,65.8l-776.37 0c-18.23,0 -27.34,-22.02 -14.46,-34.9l197.57 -197.44 3.52 -3.68 30.01 -30.02 12.62 -12.62 135.83 -135.67c3.83,-3.82 9.02,-5.97 14.44,-5.97l388.28 0c162.41,0 302.17,-124.77 309.86,-286.98 8.22,-173.23 -129.89,-316.34 -301.29,-316.34l-876.54 0c-11.29,0 -20.45,-9.16 -20.45,-20.45l0 -379.4c0,-11.28 9.16,-20.45 20.45,-20.45l876.54 0c71.54,0 140.68,10.37 205.99,29.85 32.9,9.75 64.83,21.71 95.67,35.93 138.45,63.73 253.1,169.92 327.5,301.99 9.75,17.07 18.7,34.66 26.99,52.53 42.16,91.83 65.81,194.03 65.81,301.66z"/>
   <path class="fil1" d="M2981.4 1079.09c18.22,0 27.34,22.02 14.45,34.91l-197.58 197.58 -3.47 3.68 -30.06 29.85 -28.83 28.83 -4.7 4.91 -114.85 114.67c-3.83,3.82 -9.04,5.97 -14.45,5.97l-664.26 0c-166.57,0 -301.6,135.03 -301.6,301.6l0 281.15c0,11.29 9.16,20.44 20.44,20.44l691.54 0c11.31,0 20.45,9.17 20.45,20.45l0 379.51c0,11.28 -9.14,20.44 -20.45,20.44l-1111.93 0c-11.29,0 -20.45,-9.16 -20.45,-20.44l0 -701.55c0,-107.55 23.72,-209.79 65.84,-301.6 71.98,-156.42 198.14,-282.58 354.56,-354.56 35.16,-16.15 71.97,-29.65 109.8,-40.08 61.14,-16.77 125.34,-25.77 191.8,-25.77l1043.76 0z"/>
   <path class="fil1" d="M4273.59 1801.08c18.22,0 27.34,22.02 14.45,34.9l-375.96 375.99 -26.43 26.42c-3.83,3.84 -9.05,5.99 -14.46,5.99l-266.04 0c-5.42,0 -10.61,-2.15 -14.46,-5.99l-135.65 -135.65 -226.52 -226.52c-8,-8 -20.94,-8 -28.91,0l-226.52 226.52 -100.19 100.19c-8,8 -20.94,8 -28.94,0l-100.19 -100.19 -109.86 -109.87 -45.74 -45.76c-8,-7.98 -8,-20.92 0,-28.92l69.85 -69.85 47.27 -47.27 348.2 -348.2c3.84,-3.85 9.04,-5.99 14.45,-5.99l295.43 0c5.42,0 10.61,2.14 14.45,5.99l46.54 46.53 76.03 76.02 219.81 219.65c3.85,3.84 9.04,5.99 14.45,5.99l538.94 0z"/>
  </g>
 </g>
</svg>
