<?xml version="1.0" encoding="UTF-8"?>
<!DOCTYPE svg PUBLIC "-//W3C//DTD SVG 1.1//EN" "http://www.w3.org/Graphics/SVG/1.1/DTD/svg11.dtd">
<!-- Creator: CorelDRAW 2020 (64-Bit) -->
<svg xmlns="http://www.w3.org/2000/svg" xml:space="preserve" width="102.5mm" height="102.5mm" version="1.1" style="shape-rendering:geometricPrecision; text-rendering:geometricPrecision; image-rendering:optimizeQuality; fill-rule:evenodd; clip-rule:evenodd"
viewBox="0 0 7929.8 7929.81"
 xmlns:xlink="http://www.w3.org/1999/xlink"
 xmlns:xodm="http://www.corel.com/coreldraw/odm/2003">
 <defs>
  <style type="text/css">
   <![CDATA[
    .fil0 {fill:#1E1B4B}
    .fil2 {fill:white}
    .fil1 {fill:url(#id0);fill-rule:nonzero}
   ]]>
  </style>
  <linearGradient id="id0" gradientUnits="userSpaceOnUse" x1="275.39" y1="1878.06" x2="7358.34" y2="4781.77">
   <stop offset="0" style="stop-opacity:1; stop-color:#1A7EED"/>
   <stop offset="1" style="stop-opacity:1; stop-color:#893AF8"/>
  </linearGradient>
 </defs>
 <g id="Layer_x0020_1">
  <metadata id="CorelCorpID_0Corel-Layer"/>
  <path class="fil0" d="M810.1 7929.8l6309.6 0c447.31,0 810.1,-362.58 810.1,-810.09l0 0 0 -6309.75c0,-447.32 -362.79,-809.95 -810.1,-809.95l0 0 -6309.6 0c-447.47,0 -810.1,362.63 -810.1,809.95l0 6309.75c0,447.51 362.64,810.09 810.1,810.09z"/>
  <g>
   <path class="fil1" d="M6650.16 3821.72c58.49,0 87.94,70.85 46.49,112.15l-1208.44 1208.39 -85.04 85.04c-12.21,12.41 -28.89,19.22 -46.49,19.22l-854.96 0c-17.39,0 -34.23,-6.82 -46.43,-19.22l-436.02 -435.98 -728.11 -728.11c-25.63,-25.63 -67.24,-25.63 -92.92,0l-728.11 728.11 -322.04 322.05c-25.64,25.68 -67.29,25.68 -92.92,0l-322.1 -322.05 -353.07 -353.12 -146.98 -147.14c-25.63,-25.63 -25.63,-67.24 0,-92.92l224.5 -224.44 151.97 -151.97 1119.03 -1119.23c12.41,-12.2 29.09,-19.22 46.48,-19.22l949.71 0c17.39,0 34.07,7.02 46.43,19.22l149.48 149.63 244.39 244.39 706.55 705.99c12.2,12.21 29.09,19.22 46.48,19.22l1732.14 0z"/>
   <path id="1" class="fil2" d="M6650.16 3780.78c30.59,0 56.49,12.24 75.26,31.08 9.97,10.01 17.86,22 23.24,35.01 5.41,13.1 8.32,27.1 8.32,41.1 0,26.3 -9.74,53.08 -31.46,74.76l0.09 0.09 -1208.44 1208.39 -85.04 85.04c-0.87,0.87 -1.76,1.69 -2.68,2.45 -9.31,8.77 -20.08,15.67 -31.77,20.52l0.02 0.05c-12.97,5.37 -26.88,8.19 -41,8.19l-854.96 0c-13.91,0 -27.8,-2.83 -40.79,-8.21 -12.81,-5.3 -24.59,-13.09 -34.5,-23.09l-0.09 0.09 -436.02 -435.98 -728.11 -728.11c-4.81,-4.81 -11.16,-7.23 -17.49,-7.23 -6.41,0 -12.8,2.4 -17.61,7.16l0.08 0.08 -728.11 728.11 -322.04 322.05 -0.09 0.09c-0.93,0.93 -1.9,1.8 -2.89,2.62 -20.43,19.02 -46.46,28.54 -72.44,28.54 -27.15,0 -54.36,-10.4 -75.15,-31.16 -0.03,-0.03 -0.05,-0.05 -0.08,-0.09l-0.09 0.09 -0.09 -0.09 -322.1 -322.05 -353.07 -353.12c-0.73,-0.73 -1.44,-1.5 -2.11,-2.27l-144.79 -144.94 -0.08 0.08c-20.8,-20.8 -31.22,-48.1 -31.22,-75.39 0,-27.17 10.42,-54.43 31.22,-75.27 0.05,-0.05 0.11,-0.11 0.16,-0.16l0 0 224.41 -224.36 -0.08 -0.08 151.97 -151.97 1119.03 -1119.23c1.04,-1.04 2.13,-2.01 3.25,-2.92 9.33,-8.51 20.07,-15.32 31.67,-20.11 12.89,-5.34 26.65,-8.19 40.52,-8.19l949.71 0c13.87,0 27.63,2.85 40.52,8.19 12.85,5.31 24.62,13.07 34.54,22.87 0.11,0.11 0.22,0.22 0.32,0.32l0.01 -0.01 149.4 149.54 0.08 -0.08 244.39 244.39c0.73,0.73 1.42,1.48 2.08,2.24l704.31 703.74c0.05,0.05 0.11,0.11 0.16,0.16l0 0c2.24,2.24 4.95,4.03 7.88,5.25 2.87,1.18 6.16,1.83 9.65,1.83l1732.14 0zm0 40.94c58.49,0 87.94,70.85 46.49,112.15l-1208.44 1208.39 -85.04 85.04c-12.21,12.41 -28.89,19.22 -46.49,19.22l-854.96 0c-17.39,0 -34.23,-6.82 -46.43,-19.22l-436.02 -435.98 -728.11 -728.11c-25.63,-25.63 -67.24,-25.63 -92.92,0l-728.11 728.11 -322.04 322.05c-25.64,25.68 -67.29,25.68 -92.92,0l-322.1 -322.05 -353.07 -353.12 -146.98 -147.14c-25.63,-25.63 -25.63,-67.24 0,-92.92l224.5 -224.44 151.97 -151.97 1119.03 -1119.23c12.41,-12.2 29.09,-19.22 46.48,-19.22l949.71 0c17.39,0 34.07,7.02 46.43,19.22l149.48 149.63 244.39 244.39 706.55 705.99c12.2,12.21 29.09,19.22 46.48,19.22l1732.14 0z"/>
  </g>
 </g>
</svg>
