<?xml version="1.0" encoding="UTF-8"?>
<!DOCTYPE svg PUBLIC "-//W3C//DTD SVG 1.1//EN" "http://www.w3.org/Graphics/SVG/1.1/DTD/svg11.dtd">
<!-- Creator: CorelDRAW 2020 (64-Bit) -->
<svg xmlns="http://www.w3.org/2000/svg" xml:space="preserve" width="102.5mm" height="102.5mm" version="1.1" style="shape-rendering:geometricPrecision; text-rendering:geometricPrecision; image-rendering:optimizeQuality; fill-rule:evenodd; clip-rule:evenodd"
viewBox="0 0 2599.92 2599.92"
 xmlns:xlink="http://www.w3.org/1999/xlink"
 xmlns:xodm="http://www.corel.com/coreldraw/odm/2003">
 <defs>
  <style type="text/css">
   <![CDATA[
    .fil0 {fill:black}
    .fil1 {fill:url(#id0);fill-rule:nonzero}
   ]]>
  </style>
  <linearGradient id="id0" gradientUnits="userSpaceOnUse" x1="90.3" y1="615.75" x2="2412.59" y2="1567.79">
   <stop offset="0" style="stop-opacity:1; stop-color:#1A7EED"/>
   <stop offset="1" style="stop-opacity:1; stop-color:#893AF8"/>
  </linearGradient>
 </defs>
 <g id="Layer_x0020_1">
  <metadata id="CorelCorpID_0Corel-Layer"/>
  <path class="fil0" d="M265.61 2599.92l2068.71 0c146.66,0 265.61,-118.88 265.61,-265.61l0 0 0 -2068.76c0,-146.66 -118.95,-265.56 -265.61,-265.56l0 0 -2068.71 0c-146.71,0 -265.61,118.9 -265.61,265.56l0 2068.76c0,146.73 118.9,265.61 265.61,265.61z"/>
  <path class="fil1" d="M2180.37 1253.02c19.18,0 28.83,23.23 15.24,36.77l-396.21 396.19 -27.88 27.88c-4,4.07 -9.47,6.3 -15.24,6.3l-280.31 0c-5.7,0 -11.22,-2.23 -15.23,-6.3l-142.96 -142.94 -238.73 -238.72c-8.4,-8.41 -22.04,-8.41 -30.46,0l-238.73 238.72 -105.59 105.59c-8.4,8.42 -22.06,8.42 -30.47,0l-105.61 -105.59 -115.76 -115.78 -48.19 -48.24c-8.41,-8.41 -8.41,-22.04 0,-30.47l73.6 -73.59 49.82 -49.82 366.89 -366.96c4.07,-4 9.54,-6.3 15.24,-6.3l311.38 0c5.7,0 11.17,2.3 15.22,6.3l49.01 49.06 80.12 80.12 231.65 231.47c4,4 9.54,6.3 15.24,6.3l567.91 0z"/>
 </g>
</svg>
