<?xml version="1.0" encoding="UTF-8"?>
<!DOCTYPE svg PUBLIC "-//W3C//DTD SVG 1.1//EN" "http://www.w3.org/Graphics/SVG/1.1/DTD/svg11.dtd">
<!-- Creator: CorelDRAW 2020 (64-Bit) -->
<svg xmlns="http://www.w3.org/2000/svg" xml:space="preserve" width="102.5mm" height="102.5mm" version="1.1" style="shape-rendering:geometricPrecision; text-rendering:geometricPrecision; image-rendering:optimizeQuality; fill-rule:evenodd; clip-rule:evenodd"
viewBox="0 0 721.49 721.49"
 xmlns:xlink="http://www.w3.org/1999/xlink"
 xmlns:xodm="http://www.corel.com/coreldraw/odm/2003">
 <defs>
  <style type="text/css">
   <![CDATA[
    .fil0 {fill:none}
    .fil1 {fill:white;fill-rule:nonzero}
   ]]>
  </style>
 </defs>
 <g id="Layer_x0020_1">
  <metadata id="CorelCorpID_0Corel-Layer"/>
  <path class="fil0" d="M73.71 721.49l574.08 0c40.7,0 73.71,-32.99 73.71,-73.71l0 0 0 -574.09c0,-40.7 -33.01,-73.69 -73.71,-73.69l0 0 -574.08 0c-40.71,0 -73.71,32.99 -73.71,73.69l0 574.09c0,40.72 32.99,73.71 73.71,73.71z"/>
  <path class="fil1" d="M605.06 347.72c5.32,0 8,6.45 4.23,10.2l-109.95 109.95 -7.74 7.74c-1.11,1.13 -2.63,1.75 -4.23,1.75l-77.79 0c-1.58,0 -3.11,-0.62 -4.22,-1.75l-39.67 -39.67 -66.25 -66.25c-2.33,-2.33 -6.12,-2.33 -8.45,0l-66.25 66.25 -29.3 29.3c-2.33,2.34 -6.12,2.34 -8.45,0l-29.31 -29.3 -32.12 -32.13 -13.37 -13.39c-2.33,-2.33 -2.33,-6.12 0,-8.45l20.43 -20.42 13.83 -13.83 101.81 -101.83c1.13,-1.11 2.65,-1.75 4.23,-1.75l86.41 0c1.58,0 3.1,0.64 4.22,1.75l13.6 13.61 22.24 22.24 64.29 64.23c1.11,1.11 2.65,1.75 4.23,1.75l157.6 0z"/>
 </g>
</svg>
