<?xml version="1.0" encoding="UTF-8"?>
<!DOCTYPE svg PUBLIC "-//W3C//DTD SVG 1.1//EN" "http://www.w3.org/Graphics/SVG/1.1/DTD/svg11.dtd">
<!-- Creator: CorelDRAW 2020 (64-Bit) -->
<svg xmlns="http://www.w3.org/2000/svg" xml:space="preserve" width="102.5mm" height="102.5mm" version="1.1" style="shape-rendering:geometricPrecision; text-rendering:geometricPrecision; image-rendering:optimizeQuality; fill-rule:evenodd; clip-rule:evenodd"
viewBox="0 0 1380.99 1380.99"
 xmlns:xlink="http://www.w3.org/1999/xlink"
 xmlns:xodm="http://www.corel.com/coreldraw/odm/2003">
 <defs>
  <style type="text/css">
   <![CDATA[
    .fil1 {fill:white;fill-rule:nonzero}
    .fil0 {fill:url(#id0)}
   ]]>
  </style>
  <linearGradient id="id0" gradientUnits="userSpaceOnUse" x1="-235.52" y1="-433.83" x2="1542.2" y2="1130.59">
   <stop offset="0" style="stop-opacity:1; stop-color:#1A7EED"/>
   <stop offset="1" style="stop-opacity:1; stop-color:#893AF8"/>
  </linearGradient>
 </defs>
 <g id="Layer_x0020_1">
  <metadata id="CorelCorpID_0Corel-Layer"/>
  <path class="fil0" d="M141.08 1380.99l1098.83 0c77.9,0 141.08,-63.14 141.08,-141.08l0 0 0 -1098.85c0,-77.9 -63.18,-141.05 -141.08,-141.05l0 0 -1098.83 0c-77.93,0 -141.08,63.15 -141.08,141.05l0 1098.85c0,77.94 63.15,141.08 141.08,141.08z"/>
  <path class="fil1" d="M1158.13 665.56c10.19,0 15.31,12.34 8.1,19.53l-210.45 210.44 -14.81 14.81c-2.13,2.16 -5.03,3.35 -8.1,3.35l-148.89 0c-3.03,0 -5.96,-1.19 -8.09,-3.35l-75.93 -75.93 -126.8 -126.8c-4.46,-4.46 -11.71,-4.46 -16.18,0l-126.8 126.8 -56.08 56.09c-4.46,4.47 -11.72,4.47 -16.18,0l-56.09 -56.09 -61.49 -61.5 -25.6 -25.62c-4.46,-4.46 -4.46,-11.71 0,-16.18l39.1 -39.09 26.47 -26.47 194.88 -194.92c2.16,-2.12 5.07,-3.35 8.09,-3.35l165.39 0c3.03,0 5.93,1.22 8.09,3.35l26.03 26.06 42.56 42.56 123.05 122.95c2.13,2.13 5.07,3.35 8.09,3.35l301.66 0z"/>
 </g>
</svg>
