<?xml version="1.0" encoding="UTF-8"?>
<!DOCTYPE svg PUBLIC "-//W3C//DTD SVG 1.1//EN" "http://www.w3.org/Graphics/SVG/1.1/DTD/svg11.dtd">
<!-- Creator: CorelDRAW 2020 (64-Bit) -->
<svg xmlns="http://www.w3.org/2000/svg" xml:space="preserve" width="102.5mm" height="102.5mm" version="1.1" style="shape-rendering:geometricPrecision; text-rendering:geometricPrecision; image-rendering:optimizeQuality; fill-rule:evenodd; clip-rule:evenodd"
viewBox="0 0 790.69 790.69"
 xmlns:xlink="http://www.w3.org/1999/xlink"
 xmlns:xodm="http://www.corel.com/coreldraw/odm/2003">
 <defs>
  <style type="text/css">
   <![CDATA[
    .fil2 {fill:none}
    .fil0 {fill:black}
    .fil1 {fill:#1E1B4B}
    .fil3 {fill:url(#id1);fill-rule:nonzero}
   ]]>
  </style>
   <clipPath id="id0">
    <path d="M80.78 790.69l629.14 0c44.6,0 80.78,-36.15 80.78,-80.78l0 0 0 -629.15c0,-44.6 -36.17,-80.76 -80.78,-80.76l0 0 -629.14 0c-44.62,0 -80.78,36.16 -80.78,80.76l0 629.15c0,44.62 36.16,80.78 80.78,80.78z"/>
   </clipPath>
  <linearGradient id="id1" gradientUnits="userSpaceOnUse" x1="27.46" y1="187.26" x2="733.72" y2="476.8">
   <stop offset="0" style="stop-opacity:1; stop-color:#1A7EED"/>
   <stop offset="1" style="stop-opacity:1; stop-color:#893AF8"/>
  </linearGradient>
 </defs>
 <g id="Layer_x0020_1">
  <metadata id="CorelCorpID_0Corel-Layer"/>
  <path class="fil0" d="M80.78 790.69l629.14 0c44.6,0 80.78,-36.15 80.78,-80.78l0 0 0 -629.15c0,-44.6 -36.17,-80.76 -80.78,-80.76l0 0 -629.14 0c-44.62,0 -80.78,36.16 -80.78,80.76l0 629.15c0,44.62 36.16,80.78 80.78,80.78z"/>
  <g style="clip-path:url(#id0)">
   <g id="_1381434572016">
    <path id="1" class="fil1" d="M451.86 867.92l-328.92 -440.06 164.46 -83.94c0,0 176.62,29.67 186.76,40.54 10.14,10.87 51.69,75 62.84,73.99 11.15,-1.01 132.15,-73.34 132.15,-73.34l309.74 373.35c0,0 -170.66,112.5 -188.2,119.6 -17.54,7.1 -338.83,-10.14 -338.83,-10.14z"/>
   </g>
  </g>
  <path class="fil2" d="M80.78 790.69l629.14 0c44.6,0 80.78,-36.15 80.78,-80.78l0 0 0 -629.15c0,-44.6 -36.17,-80.76 -80.78,-80.76l0 0 -629.14 0c-44.62,0 -80.78,36.16 -80.78,80.76l0 629.15c0,44.62 36.16,80.78 80.78,80.78z"/>
  <path class="fil3" d="M663.1 381.07c5.83,0 8.77,7.06 4.64,11.18l-120.5 120.49 -8.48 8.48c-1.22,1.24 -2.88,1.92 -4.63,1.92l-85.25 0c-1.73,0 -3.41,-0.68 -4.63,-1.92l-43.48 -43.47 -72.6 -72.6c-2.56,-2.56 -6.7,-2.56 -9.27,0l-72.6 72.6 -32.11 32.11c-2.56,2.56 -6.71,2.56 -9.27,0l-32.12 -32.11 -35.2 -35.21 -14.66 -14.67c-2.56,-2.56 -2.56,-6.7 0,-9.27l22.38 -22.38 15.15 -15.15 111.58 -111.6c1.24,-1.22 2.9,-1.92 4.64,-1.92l94.7 0c1.73,0 3.4,0.7 4.63,1.92l14.9 14.92 24.37 24.37 70.45 70.4c1.22,1.22 2.9,1.92 4.64,1.92l172.71 0z"/>
 </g>
</svg>
