<?xml version="1.0" encoding="UTF-8"?>
<!DOCTYPE svg PUBLIC "-//W3C//DTD SVG 1.1//EN" "http://www.w3.org/Graphics/SVG/1.1/DTD/svg11.dtd">
<!-- Creator: CorelDRAW 2020 (64-Bit) -->
<svg xmlns="http://www.w3.org/2000/svg" xml:space="preserve" width="102.5mm" height="102.5mm" version="1.1" style="shape-rendering:geometricPrecision; text-rendering:geometricPrecision; image-rendering:optimizeQuality; fill-rule:evenodd; clip-rule:evenodd"
viewBox="0 0 1040.15 1040.15"
 xmlns:xlink="http://www.w3.org/1999/xlink"
 xmlns:xodm="http://www.corel.com/coreldraw/odm/2003">
 <defs>
  <style type="text/css">
   <![CDATA[
    .fil0 {fill:black}
    .fil1 {fill:white}
   ]]>
  </style>
 </defs>
 <g id="Layer_x0020_1">
  <metadata id="CorelCorpID_0Corel-Layer"/>
  <path class="fil0" d="M106.26 1040.15l827.63 0c58.67,0 106.26,-47.56 106.26,-106.26l0 0 0 -827.65c0,-58.67 -47.59,-106.24 -106.26,-106.24l0 0 -827.63 0c-58.69,0 -106.26,47.57 -106.26,106.24l0 827.65c0,58.7 47.57,106.26 106.26,106.26z"/>
  <g>
   <path class="fil1" d="M872.3 495.93c4.01,0 7.41,1.61 9.87,4.08 1.31,1.31 2.34,2.89 3.05,4.59 0.71,1.72 1.09,3.55 1.09,5.39 0,3.45 -1.28,6.96 -4.13,9.81l0.01 0.01 -158.51 158.5 -11.15 11.15c-0.11,0.11 -0.23,0.22 -0.35,0.32 -1.22,1.15 -2.63,2.05 -4.17,2.69l0 0.01c-1.7,0.7 -3.53,1.07 -5.38,1.07l-112.14 0c-1.82,0 -3.65,-0.37 -5.35,-1.08 -1.68,-0.7 -3.23,-1.72 -4.53,-3.03l-0.01 0.01 -57.19 -57.19 -95.51 -95.51c-0.06,-0.06 -0.12,-0.12 -0.17,-0.18 -0.59,-0.51 -1.35,-0.77 -2.12,-0.77 -0.84,0 -1.68,0.31 -2.31,0.94l0.01 0.01 -95.51 95.51 -42.24 42.24 -0.01 0.01c-0.12,0.12 -0.25,0.24 -0.38,0.34 -2.68,2.5 -6.09,3.74 -9.5,3.74 -3.56,0 -7.13,-1.36 -9.86,-4.09l-0.01 -0.01 -0.01 0.01 -0.01 -0.01 -42.25 -42.24 -46.31 -46.32c-0.1,-0.1 -0.19,-0.2 -0.28,-0.3l-19 -19.02c-2.73,-2.73 -4.09,-6.3 -4.09,-9.87 0,-3.57 1.37,-7.14 4.09,-9.87l0.01 -0.01 -0.01 -0.01 29.45 -29.44 19.93 -19.93 146.78 -146.81c0.13,-0.13 0.28,-0.26 0.42,-0.38 1.22,-1.12 2.64,-2.01 4.16,-2.64 1.69,-0.7 3.5,-1.07 5.32,-1.07l124.57 0c1.82,0 3.62,0.37 5.32,1.07 1.68,0.7 3.23,1.71 4.53,3 0.01,0.01 0.03,0.03 0.04,0.04l0 -0 19.6 19.62 0.01 -0.01 32.06 32.05c0.1,0.1 0.19,0.19 0.27,0.29l92.38 92.31c0.01,0.01 0.01,0.01 0.02,0.02l0 0c0.29,0.29 0.65,0.53 1.03,0.69 0.38,0.16 0.81,0.24 1.27,0.24l227.2 0zm0 5.37c7.67,0 11.54,9.29 6.1,14.71l-158.51 158.5 -11.15 11.15c-1.6,1.63 -3.79,2.52 -6.1,2.52l-112.14 0c-2.28,0 -4.49,-0.89 -6.09,-2.52l-57.19 -57.19 -95.51 -95.51c-3.36,-3.36 -8.82,-3.36 -12.19,0l-95.51 95.51 -42.24 42.24c-3.36,3.37 -8.83,3.37 -12.19,0l-42.25 -42.24 -46.31 -46.32 -19.28 -19.3c-3.36,-3.36 -3.36,-8.82 0,-12.19l29.45 -29.44 19.93 -19.93 146.78 -146.81c1.63,-1.6 3.82,-2.52 6.1,-2.52l124.57 0c2.28,0 4.47,0.92 6.09,2.52l19.61 19.63 32.06 32.05 92.68 92.6c1.6,1.6 3.82,2.52 6.1,2.52l227.2 0z"/>
  </g>
 </g>
</svg>
