<?xml version="1.0" encoding="UTF-8"?>
<!DOCTYPE svg PUBLIC "-//W3C//DTD SVG 1.1//EN" "http://www.w3.org/Graphics/SVG/1.1/DTD/svg11.dtd">
<!-- Creator: CorelDRAW 2020 (64-Bit) -->
<svg xmlns="http://www.w3.org/2000/svg" xml:space="preserve" width="102.5mm" height="102.5mm" version="1.1" style="shape-rendering:geometricPrecision; text-rendering:geometricPrecision; image-rendering:optimizeQuality; fill-rule:evenodd; clip-rule:evenodd"
viewBox="0 0 923.62 923.62"
 xmlns:xlink="http://www.w3.org/1999/xlink"
 xmlns:xodm="http://www.corel.com/coreldraw/odm/2003">
 <defs>
  <style type="text/css">
   <![CDATA[
    .fil0 {fill:none}
    .fil1 {fill:black;fill-rule:nonzero}
   ]]>
  </style>
 </defs>
 <g id="Layer_x0020_1">
  <metadata id="CorelCorpID_0Corel-Layer"/>
  <path class="fil0" d="M94.36 923.62l734.91 0c52.1,0 94.36,-42.23 94.36,-94.36l0 0 0 -734.93c0,-52.1 -42.26,-94.34 -94.36,-94.34l0 0 -734.91 0c-52.12,0 -94.36,42.24 -94.36,94.34l0 734.93c0,52.12 42.24,94.36 94.36,94.36z"/>
  <path class="fil1" d="M774.57 445.13c6.81,0 10.24,8.25 5.41,13.06l-140.75 140.75 -9.9 9.9c-1.42,1.45 -3.36,2.24 -5.41,2.24l-99.58 0c-2.03,0 -3.99,-0.79 -5.41,-2.24l-50.79 -50.78 -84.81 -84.81c-2.99,-2.99 -7.83,-2.99 -10.82,0l-84.81 84.81 -37.51 37.51c-2.99,2.99 -7.84,2.99 -10.82,0l-37.52 -37.51 -41.12 -41.13 -17.12 -17.14c-2.99,-2.99 -2.99,-7.83 0,-10.82l26.15 -26.14 17.7 -17.7 130.34 -130.36c1.45,-1.42 3.39,-2.24 5.41,-2.24l110.62 0c2.03,0 3.97,0.82 5.41,2.24l17.41 17.43 28.46 28.46 82.3 82.23c1.42,1.42 3.39,2.24 5.41,2.24l201.75 0z"/>
 </g>
</svg>
