<?xml version="1.0" encoding="UTF-8"?>
<!DOCTYPE svg PUBLIC "-//W3C//DTD SVG 1.1//EN" "http://www.w3.org/Graphics/SVG/1.1/DTD/svg11.dtd">
<!-- Creator: CorelDRAW 2020 (64-Bit) -->
<svg xmlns="http://www.w3.org/2000/svg" xml:space="preserve" width="102.5mm" height="102.5mm" version="1.1" style="shape-rendering:geometricPrecision; text-rendering:geometricPrecision; image-rendering:optimizeQuality; fill-rule:evenodd; clip-rule:evenodd"
viewBox="0 0 585.5 585.5"
 xmlns:xlink="http://www.w3.org/1999/xlink"
 xmlns:xodm="http://www.corel.com/coreldraw/odm/2003">
 <defs>
  <style type="text/css">
   <![CDATA[
    .fil0 {fill:none}
    .fil1 {fill:white}
   ]]>
  </style>
 </defs>
 <g id="Layer_x0020_1">
  <metadata id="CorelCorpID_0Corel-Layer"/>
  <path class="fil0" d="M59.81 585.5l465.87 0c33.03,0 59.81,-26.77 59.81,-59.81l0 0 0 -465.89c0,-33.03 -26.79,-59.8 -59.81,-59.8l0 0 -465.87 0c-33.04,0 -59.81,26.77 -59.81,59.8l0 465.89c0,33.04 26.77,59.81 59.81,59.81z"/>
  <path class="fil1" d="M491.02 272.1c4.26,0 7.89,1.73 10.54,4.39 1.39,1.39 2.48,3.06 3.23,4.87 0.76,1.84 1.17,3.78 1.17,5.71l-0.04 0c-0,3.72 -1.35,7.48 -4.36,10.49l0.02 0.02 -95.5 95.5c-0.31,0.31 -0.63,0.59 -0.96,0.85 -1.17,0.99 -2.49,1.78 -3.9,2.37 -1.83,0.76 -3.76,1.16 -5.69,1.16l-63.13 0c-1.92,0 -3.85,-0.4 -5.69,-1.16 -1.8,-0.75 -3.46,-1.84 -4.85,-3.23l-0.02 0.02 -82.26 -82.26 -73.85 73.85c-0.31,0.31 -0.63,0.59 -0.96,0.85 -2.77,2.34 -6.18,3.52 -9.58,3.52 -3.79,0 -7.59,-1.46 -10.51,-4.37l-0.02 -0.02 -0.02 0.02 -49.86 -49.86c-0.18,-0.18 -0.35,-0.37 -0.52,-0.56l-10.36 -10.37c-2.9,-2.93 -4.35,-6.72 -4.35,-10.49 0,-3.79 1.46,-7.6 4.37,-10.52l0.02 -0.02 -0.02 -0.02c36.81,-36.81 73.61,-73.62 110.42,-110.43 0.34,-0.34 0.69,-0.64 1.06,-0.92 1.15,-0.95 2.45,-1.72 3.83,-2.3 1.82,-0.75 3.75,-1.16 5.67,-1.16l70.12 0c1.92,0 3.85,0.4 5.67,1.16 1.8,0.75 3.44,1.82 4.81,3.18l11.1 11.11 0.02 -0.02 18.04 18.04c0.18,0.18 0.35,0.36 0.51,0.55l50.09 50.05 125.78 0zm0 10.08c4.32,0 6.49,5.23 3.43,8.28l-95.5 95.5c-0.9,0.92 -2.13,1.42 -3.43,1.42l-63.13 0c-1.29,0 -2.53,-0.5 -3.43,-1.42l-85.95 -85.95c-1.89,-1.89 -4.96,-1.89 -6.86,0l-77.54 77.54c-1.89,1.9 -4.97,1.9 -6.86,0 -20.24,-20.24 -40.48,-40.47 -60.7,-60.72 -1.89,-1.89 -1.89,-4.96 0,-6.86 36.81,-36.81 73.61,-73.62 110.42,-110.43 0.92,-0.9 2.15,-1.42 3.43,-1.42l70.12 0c1.28,0 2.52,0.52 3.43,1.42l29.08 29.09 52.17 52.13c0.9,0.9 2.15,1.42 3.43,1.42l127.89 0z"/>
 </g>
</svg>
