<?xml version="1.0" encoding="UTF-8"?>
<!DOCTYPE svg PUBLIC "-//W3C//DTD SVG 1.1//EN" "http://www.w3.org/Graphics/SVG/1.1/DTD/svg11.dtd">
<!-- Creator: CorelDRAW 2020 (64-Bit) -->
<svg xmlns="http://www.w3.org/2000/svg" xml:space="preserve" width="102.5mm" height="102.5mm" version="1.1" style="shape-rendering:geometricPrecision; text-rendering:geometricPrecision; image-rendering:optimizeQuality; fill-rule:evenodd; clip-rule:evenodd"
viewBox="0 0 1258.95 1258.95"
 xmlns:xlink="http://www.w3.org/1999/xlink"
 xmlns:xodm="http://www.corel.com/coreldraw/odm/2003">
 <defs>
  <style type="text/css">
   <![CDATA[
    .fil0 {fill:none}
    .fil1 {fill:url(#id0);fill-rule:nonzero}
   ]]>
  </style>
  <linearGradient id="id0" gradientUnits="userSpaceOnUse" x1="43.72" y1="298.17" x2="1168.23" y2="759.16">
   <stop offset="0" style="stop-opacity:1; stop-color:#1A7EED"/>
   <stop offset="1" style="stop-opacity:1; stop-color:#893AF8"/>
  </linearGradient>
 </defs>
 <g id="Layer_x0020_1">
  <metadata id="CorelCorpID_0Corel-Layer"/>
  <path class="fil0" d="M128.61 1258.95l1001.73 0c71.02,0 128.61,-57.56 128.61,-128.61l0 0 0 -1001.75c0,-71.02 -57.6,-128.59 -128.61,-128.59l0 0 -1001.73 0c-71.04,0 -128.61,57.57 -128.61,128.59l0 1001.75c0,71.05 57.57,128.61 128.61,128.61z"/>
  <path class="fil1" d="M1055.79 606.75c9.29,0 13.96,11.25 7.38,17.8l-191.85 191.85 -13.5 13.5c-1.94,1.97 -4.59,3.05 -7.38,3.05l-135.74 0c-2.76,0 -5.43,-1.08 -7.37,-3.05l-69.22 -69.22 -115.6 -115.6c-4.07,-4.07 -10.67,-4.07 -14.75,0l-115.6 115.6 -51.13 51.13c-4.07,4.08 -10.68,4.08 -14.75,0l-51.14 -51.13 -56.05 -56.06 -23.34 -23.36c-4.07,-4.07 -4.07,-10.67 0,-14.75l35.64 -35.63 24.13 -24.13 177.66 -177.69c1.97,-1.94 4.62,-3.05 7.38,-3.05l150.78 0c2.76,0 5.41,1.12 7.37,3.05l23.73 23.76 38.8 38.8 112.17 112.08c1.94,1.94 4.62,3.05 7.38,3.05l275 0z"/>
 </g>
</svg>
